# xmcd
#
# Track frame offsets:
#	150
#	7965
#	12877
#	20242
#	50827
#	74212
#	98617
#	115904
#	133244
#	156696
#	178498
#	190880
#
# Disc length: 2631 seconds
#
# Revision: 0
# Processed by: cddbd v1.5.2PL0 Copyright (c) Steve Scherf et al.
# Submitted via: EasyCDDAExtractor 16.0.6.1
#
DISCID=b60a450c
DTITLE=Σουρέλη Γαλάτεια-Ελλ. βυζ. χορ. Λυκ. Αγγελοπούλου - Αύριο είναι Κυριακή
DTITLE=2
DYEAR=1999
DGENRE=Ποικίλη
TTITLE0=Μέρος 1
TTITLE1=Μέρος 2
TTITLE2=Μέρος 3
TTITLE3=Μέρος 4
TTITLE4=Μέρος 5
TTITLE5=Μέρος 6
TTITLE6=Μέρος 7
TTITLE7=Μέρος 8
TTITLE8=Μέρος 9
TTITLE9=Μέρος 10
TTITLE10=Μέρος 11
TTITLE11=Μέρος 12
EXTD=
EXTT0=
EXTT1=
EXTT2=
EXTT3=
EXTT4=
EXTT5=
EXTT6=
EXTT7=
EXTT8=
EXTT9=
EXTT10=
EXTT11=
PLAYORDER=
